<svg width="179" height="82" viewBox="0 0 179 82" fill="none" xmlns="http://www.w3.org/2000/svg">
<path d="M32.8336 1.21638V8.41378H21.0102V45.6746H12.1109V8.41378H0.287518V1.21638H32.8336Z" fill="#EAE8EE"/>
<path d="M59.9224 46.1205C55.7694 46.1205 51.9554 45.1439 48.4804 43.1906C45.0055 41.2373 42.2509 38.5409 40.2168 35.1015C38.1826 31.6195 37.1656 27.6918 37.1656 23.3181C37.1656 18.9869 38.1826 15.1016 40.2168 11.6622C42.2509 8.18023 45.0055 5.46263 48.4804 3.50936C51.9554 1.55608 55.7694 0.579445 59.9224 0.579445C64.1178 0.579445 67.9318 1.55608 71.3644 3.50936C74.8394 5.46263 77.5727 8.18023 79.5645 11.6622C81.5986 15.1016 82.6157 18.9869 82.6157 23.3181C82.6157 27.6918 81.5986 31.6195 79.5645 35.1015C77.5727 38.5409 74.8394 41.2373 71.3644 43.1906C67.8894 45.1439 64.0754 46.1205 59.9224 46.1205ZM59.9224 38.1588C62.5922 38.1588 64.9442 37.5643 66.9783 36.3753C69.0124 35.1439 70.6016 33.403 71.7458 31.1525C72.89 28.9019 73.4621 26.2905 73.4621 23.3181C73.4621 20.3457 72.89 17.7555 71.7458 15.5475C70.6016 13.297 69.0124 11.5772 66.9783 10.3883C64.9442 9.19934 62.5922 8.60486 59.9224 8.60486C57.2526 8.60486 54.8795 9.19934 52.803 10.3883C50.7688 11.5772 49.1797 13.297 48.0355 15.5475C46.8913 17.7555 46.3192 20.3457 46.3192 23.3181C46.3192 26.2905 46.8913 28.9019 48.0355 31.1525C49.1797 33.403 50.7688 35.1439 52.803 36.3753C54.8795 37.5643 57.2526 38.1588 59.9224 38.1588Z" fill="#EAE8EE"/>
<path d="M104.747 1.21638C109.408 1.21638 113.498 2.12933 117.015 3.95521C120.575 5.7811 123.308 8.39255 125.215 11.7896C127.165 15.1441 128.139 19.0506 128.139 23.5092C128.139 27.9678 127.165 31.8743 125.215 35.2289C123.308 38.5409 120.575 41.1099 117.015 42.9358C113.498 44.7617 109.408 45.6746 104.747 45.6746H89.2365V1.21638H104.747ZM104.429 38.0951C109.091 38.0951 112.693 36.8212 115.235 34.2735C117.778 31.7257 119.049 28.1376 119.049 23.5092C119.049 18.8808 117.778 15.2715 115.235 12.6813C112.693 10.0486 109.091 8.73225 104.429 8.73225H98.1359V38.0951H104.429Z" fill="#EAE8EE"/>
<path d="M155.396 46.1205C151.243 46.1205 147.429 45.1439 143.954 43.1906C140.48 41.2373 137.725 38.5409 135.691 35.1015C133.657 31.6195 132.64 27.6918 132.64 23.3181C132.64 18.9869 133.657 15.1016 135.691 11.6622C137.725 8.18023 140.48 5.46263 143.954 3.50936C147.429 1.55608 151.243 0.579445 155.396 0.579445C159.592 0.579445 163.406 1.55608 166.838 3.50936C170.313 5.46263 173.047 8.18023 175.039 11.6622C177.073 15.1016 178.09 18.9869 178.09 23.3181C178.09 27.6918 177.073 31.6195 175.039 35.1015C173.047 38.5409 170.313 41.2373 166.838 43.1906C163.363 45.1439 159.549 46.1205 155.396 46.1205ZM155.396 38.1588C158.066 38.1588 160.418 37.5643 162.452 36.3753C164.486 35.1439 166.076 33.403 167.22 31.1525C168.364 28.9019 168.936 26.2905 168.936 23.3181C168.936 20.3457 168.364 17.7555 167.22 15.5475C166.076 13.297 164.486 11.5772 162.452 10.3883C160.418 9.19934 158.066 8.60486 155.396 8.60486C152.727 8.60486 150.354 9.19934 148.277 10.3883C146.243 11.5772 144.654 13.297 143.51 15.5475C142.365 17.7555 141.793 20.3457 141.793 23.3181C141.793 26.2905 142.365 28.9019 143.51 31.1525C144.654 33.403 146.243 35.1439 148.277 36.3753C150.354 37.5643 152.727 38.1588 155.396 38.1588Z" fill="#EAE8EE"/>
<path d="M109.632 77.7644H100.797L99.3346 82H94.6624L102.64 59.739H107.821L115.798 82H111.094L109.632 77.7644ZM108.425 74.1975L105.214 64.8982L102.004 74.1975H108.425Z" fill="#EAE8EE"/>
<path d="M134.958 66.6498C134.958 67.8387 134.672 68.9534 134.1 69.9937C133.549 71.034 132.67 71.8727 131.462 72.5096C130.275 73.1466 128.771 73.465 126.949 73.465H123.23V82H118.78V59.7709H126.949C128.665 59.7709 130.127 60.0681 131.335 60.6626C132.542 61.2571 133.443 62.0745 134.036 63.1148C134.651 64.1551 134.958 65.3335 134.958 66.6498ZM126.758 69.8663C127.987 69.8663 128.898 69.5903 129.491 69.0383C130.085 68.4651 130.381 67.6689 130.381 66.6498C130.381 64.4842 129.173 63.4014 126.758 63.4014H123.23V69.8663H126.758Z" fill="#EAE8EE"/>
<path d="M154.295 66.6498C154.295 67.8387 154.009 68.9534 153.437 69.9937C152.886 71.034 152.006 71.8727 150.799 72.5096C149.612 73.1466 148.108 73.465 146.285 73.465H142.567V82H138.117V59.7709H146.285C148.002 59.7709 149.464 60.0681 150.672 60.6626C151.879 61.2571 152.78 62.0745 153.373 63.1148C153.988 64.1551 154.295 65.3335 154.295 66.6498ZM146.095 69.8663C147.324 69.8663 148.235 69.5903 148.828 69.0383C149.421 68.4651 149.718 67.6689 149.718 66.6498C149.718 64.4842 148.51 63.4014 146.095 63.4014H142.567V69.8663H146.095Z" fill="#EAE8EE"/>
<path d="M174.478 70.0574H169.969C167.923 70.0574 166.264 71.7239 166.264 73.7791V78.2783C166.264 80.3335 167.923 82 169.969 82H174.478C176.524 82 178.183 80.3335 178.183 78.2783V73.7791C178.183 71.7239 176.524 70.0574 174.478 70.0574ZM174.721 74.6855L171.576 77.8453C171.513 77.9088 171.429 77.9434 171.338 77.9434H171.333C171.243 77.9434 171.157 77.903 171.093 77.8376L169.716 76.3674C169.59 76.2327 169.595 76.0191 169.731 75.8921C169.865 75.7651 170.078 75.7708 170.206 75.9075L171.346 77.1256L174.248 74.2102C174.379 74.0793 174.591 74.0793 174.723 74.2102C174.855 74.341 174.854 74.5546 174.723 74.6874L174.721 74.6855Z" fill="#EAE8EE"/>
</svg>
