<svg width="640" height="400" viewBox="0 0 640 400" fill="none" xmlns="http://www.w3.org/2000/svg">
<rect width="640" height="400" fill="url(#paint0_linear_2_2)"/>
<path d="M194.32 129.656V144.12H170.512V219H152.592V144.12H128.784V129.656H194.32ZM248.867 219.896C240.504 219.896 232.824 217.933 225.827 214.008C218.829 210.083 213.283 204.664 209.187 197.752C205.091 190.755 203.043 182.861 203.043 174.072C203.043 165.368 205.091 157.56 209.187 150.648C213.283 143.651 218.829 138.189 225.827 134.264C232.824 130.339 240.504 128.376 248.867 128.376C257.315 128.376 264.995 130.339 271.907 134.264C278.904 138.189 284.408 143.651 288.419 150.648C292.515 157.56 294.563 165.368 294.563 174.072C294.563 182.861 292.515 190.755 288.419 197.752C284.408 204.664 278.904 210.083 271.907 214.008C264.909 217.933 257.229 219.896 248.867 219.896ZM248.867 203.896C254.243 203.896 258.979 202.701 263.075 200.312C267.171 197.837 270.371 194.339 272.675 189.816C274.979 185.293 276.131 180.045 276.131 174.072C276.131 168.099 274.979 162.893 272.675 158.456C270.371 153.933 267.171 150.477 263.075 148.088C258.979 145.699 254.243 144.504 248.867 144.504C243.491 144.504 238.712 145.699 234.531 148.088C230.435 150.477 227.235 153.933 224.931 158.456C222.627 162.893 221.475 168.099 221.475 174.072C221.475 180.045 222.627 185.293 224.931 189.816C227.235 194.339 230.435 197.837 234.531 200.312C238.712 202.701 243.491 203.896 248.867 203.896ZM339.127 129.656C348.513 129.656 356.748 131.491 363.831 135.16C370.999 138.829 376.503 144.077 380.343 150.904C384.268 157.645 386.231 165.496 386.231 174.456C386.231 183.416 384.268 191.267 380.343 198.008C376.503 204.664 370.999 209.827 363.831 213.496C356.748 217.165 348.513 219 339.127 219H307.895V129.656H339.127ZM338.487 203.768C347.873 203.768 355.127 201.208 360.247 196.088C365.367 190.968 367.927 183.757 367.927 174.456C367.927 165.155 365.367 157.901 360.247 152.696C355.127 147.405 347.873 144.76 338.487 144.76H325.815V203.768H338.487ZM441.117 219.896C432.754 219.896 425.074 217.933 418.077 214.008C411.079 210.083 405.533 204.664 401.437 197.752C397.341 190.755 395.293 182.861 395.293 174.072C395.293 165.368 397.341 157.56 401.437 150.648C405.533 143.651 411.079 138.189 418.077 134.264C425.074 130.339 432.754 128.376 441.117 128.376C449.565 128.376 457.245 130.339 464.157 134.264C471.154 138.189 476.658 143.651 480.669 150.648C484.765 157.56 486.813 165.368 486.813 174.072C486.813 182.861 484.765 190.755 480.669 197.752C476.658 204.664 471.154 210.083 464.157 214.008C457.159 217.933 449.479 219.896 441.117 219.896ZM441.117 203.896C446.493 203.896 451.229 202.701 455.325 200.312C459.421 197.837 462.621 194.339 464.925 189.816C467.229 185.293 468.381 180.045 468.381 174.072C468.381 168.099 467.229 162.893 464.925 158.456C462.621 153.933 459.421 150.477 455.325 148.088C451.229 145.699 446.493 144.504 441.117 144.504C435.741 144.504 430.962 145.699 426.781 148.088C422.685 150.477 419.485 153.933 417.181 158.456C414.877 162.893 413.725 168.099 413.725 174.072C413.725 180.045 414.877 185.293 417.181 189.816C419.485 194.339 422.685 197.837 426.781 200.312C430.962 202.701 435.741 203.896 441.117 203.896Z" fill="white"/>
<line x1="98" y1="288" x2="295" y2="288" stroke="white" stroke-width="8"/>
<line x1="509" y1="288" x2="541" y2="288" stroke="white" stroke-width="8"/>
<line x1="98" y1="83" x2="541" y2="83" stroke="white" stroke-width="8"/>
<line x1="102" y1="87" x2="102" y2="292" stroke="white" stroke-width="8"/>
<line x1="537" y1="87" x2="537" y2="292" stroke="white" stroke-width="8"/>
<path d="M348.964 283.488H331.172L328.228 292H318.82L334.884 247.264H345.316L361.38 292H351.908L348.964 283.488ZM346.532 276.32L340.068 257.632L333.604 276.32H346.532ZM399.961 261.152C399.961 263.541 399.385 265.781 398.233 267.872C397.123 269.963 395.353 271.648 392.921 272.928C390.531 274.208 387.502 274.848 383.833 274.848H376.345V292H367.385V247.328H383.833C387.289 247.328 390.233 247.925 392.665 249.12C395.097 250.315 396.91 251.957 398.105 254.048C399.342 256.139 399.961 258.507 399.961 261.152ZM383.449 267.616C385.923 267.616 387.758 267.061 388.953 265.952C390.147 264.8 390.745 263.2 390.745 261.152C390.745 256.8 388.313 254.624 383.449 254.624H376.345V267.616H383.449ZM438.898 261.152C438.898 263.541 438.322 265.781 437.17 267.872C436.061 269.963 434.29 271.648 431.858 272.928C429.469 274.208 426.44 274.848 422.77 274.848H415.282V292H406.322V247.328H422.77C426.226 247.328 429.17 247.925 431.602 249.12C434.034 250.315 435.848 251.957 437.042 254.048C438.28 256.139 438.898 258.507 438.898 261.152ZM422.386 267.616C424.861 267.616 426.696 267.061 427.89 265.952C429.085 264.8 429.682 263.2 429.682 261.152C429.682 256.8 427.25 254.624 422.386 254.624H415.282V267.616H422.386Z" fill="white"/>
<path d="M479.54 268H470.46C466.34 268 463 271.349 463 275.479V284.521C463 288.651 466.34 292 470.46 292H479.54C483.66 292 487 288.651 487 284.521V275.479C487 271.349 483.66 268 479.54 268ZM480.03 277.301L473.696 283.651C473.569 283.778 473.399 283.848 473.218 283.848H473.206C473.025 283.848 472.851 283.767 472.724 283.635L469.951 280.681C469.696 280.41 469.708 279.981 469.982 279.725C470.252 279.47 470.68 279.482 470.938 279.756L473.233 282.204L479.077 276.345C479.339 276.083 479.768 276.083 480.034 276.345C480.3 276.608 480.296 277.038 480.034 277.305L480.03 277.301Z" fill="white"/>
<defs>
<linearGradient id="paint0_linear_2_2" x1="8" y1="15.5" x2="640" y2="400" gradientUnits="userSpaceOnUse">
<stop stop-color="#EF88BB"/>
<stop offset="1" stop-color="#291850"/>
</linearGradient>
</defs>
</svg>
